<?xml version="1.0" encoding="utf-8"?>
<!-- Generator: Adobe Illustrator 17.0.0, SVG Export Plug-In . SVG Version: 6.00 Build 0)  -->
<!DOCTYPE svg PUBLIC "-//W3C//DTD SVG 1.1//EN" "http://www.w3.org/Graphics/SVG/1.1/DTD/svg11.dtd">
<svg version="1.1" id="Layer_1" xmlns="http://www.w3.org/2000/svg" xmlns:xlink="http://www.w3.org/1999/xlink" x="0px" y="0px"
	 width="310.667px" height="62px" viewBox="0 0 310.667 62" enable-background="new 0 0 310.667 62" xml:space="preserve">
<path fill="#FFFFFF" d="M100.241,44.171H85.943l-3.097,7.269h-6.54l13.439-30.296h6.692l13.436,30.296h-6.538L100.241,44.171z
	 M98.109,39.219l-5.017-11.898L88.02,39.219H98.109z"/>
<path fill="#FFFFFF" d="M136.022,44.894v5.09c-3.045,1.093-6.445,1.814-10.244,1.814c-7.201,0-15.772-2.678-15.772-15.53
	c0-12.856,8.571-15.534,15.772-15.534c3.799,0,7.199,0.726,10.244,1.818v5.084c-2.842-1.177-6.037-1.996-9.686-1.996
	c-5.326,0-10.244,1.27-10.244,10.628c0,9.357,4.918,10.628,10.244,10.628C129.984,46.896,133.18,46.078,136.022,44.894"/>
<rect x="142.031" y="21.144" fill="#FFFFFF" width="6.085" height="30.296"/>
<path fill="#FFFFFF" d="M181.926,36.312c0,9.9-5.53,15.127-15.977,15.127h-11.66V21.144h11.66
	C176.396,21.144,181.926,26.366,181.926,36.312 M175.838,36.312c0-7.269-2.84-10.221-9.889-10.221h-5.574v20.397h5.574
	C172.998,46.489,175.838,43.534,175.838,36.312"/>
<polygon fill="#FFFFFF" points="218.588,46.236 216.348,51.417 198.471,51.417 198.471,21.12 204.559,21.12 204.559,46.236 "/>
<path fill="#FFFFFF" d="M244.287,44.15h-14.3l-3.094,7.267h-6.537l13.436-30.297h6.692l13.438,30.297h-6.541L244.287,44.15z
	 M242.158,39.195l-5.022-11.898l-5.069,11.898H242.158z"/>
<path fill="#FFFFFF" d="M282.685,42.515c0,3.493-1.619,8.902-12.371,8.902h-13.386V21.12H269.1c5.776,0,11.711,1.952,11.711,8.538
	c0,2.999-1.875,4.861-4.009,5.863C279.442,36.383,282.685,38.337,282.685,42.515 M263.014,33.476h6.438
	c0.813,0,5.277,0.272,5.277-3.634c0-3.407-3.245-3.998-5.731-3.998h-5.984V33.476z M276.603,42.242c0-3.586-3.958-3.952-6.796-3.952
	h-6.793v8.354h6.997C273.46,46.644,276.603,45.691,276.603,42.242"/>
<path fill="#FFFFFF" d="M308.827,43.421c0,5.042-5.376,8.356-11.66,8.356c-4.819,0-8.418-1.089-11.161-2.586v-5.543
	c2.385,1.588,5.58,2.909,9.741,2.909c3.497,0,6.995-0.685,6.995-3.499c0-6.724-17.187-2.908-17.187-13.488
	c0-6.179,5.728-8.812,12.066-8.812c3.396,0,6.438,0.859,9.076,2.086v5.317c-2.078-1.225-4.864-2.317-8.367-2.317
	c-3.191,0-6.692,0.861-6.692,3.588C291.638,34.974,308.827,31.065,308.827,43.421"/>
<polygon fill="#39B54A" points="11.703,29.959 21.707,12.637 44.838,12.637 56.399,32.666 46.398,49.99 47.178,51.344 
	50.565,57.205 64.732,32.666 49.002,5.421 17.543,5.421 3.374,29.959 10.144,29.959 "/>
<polygon fill="#FFFFFF" points="29.107,39.881 40.673,59.91 49.002,59.91 33.273,32.666 1.812,32.666 5.978,39.881 "/>
</svg>
