<?xml version="1.0" encoding="utf-8"?>
<!-- Generator: Adobe Illustrator 17.0.0, SVG Export Plug-In . SVG Version: 6.00 Build 0)  -->
<!DOCTYPE svg PUBLIC "-//W3C//DTD SVG 1.1//EN" "http://www.w3.org/Graphics/SVG/1.1/DTD/svg11.dtd">
<svg version="1.1" id="Layer_1" xmlns="http://www.w3.org/2000/svg" xmlns:xlink="http://www.w3.org/1999/xlink" x="0px" y="0px"
	 width="310.667px" height="62px" viewBox="0 0 310.667 62" enable-background="new 0 0 310.667 62" xml:space="preserve">
<g>
	<path fill="#333333" d="M100.256,43.506H85.959l-3.099,7.268h-6.537l13.439-30.298h6.693l13.436,30.298h-6.541L100.256,43.506z
		 M98.125,38.553l-5.017-11.898l-5.071,11.898H98.125z"/>
	<path fill="#333333" d="M136.036,44.231v5.088c-3.042,1.09-6.441,1.813-10.244,1.813c-7.199,0-15.769-2.676-15.769-15.532
		c0-12.853,8.57-15.53,15.769-15.53c3.803,0,7.202,0.722,10.244,1.813v5.088c-2.841-1.178-6.037-1.999-9.686-1.999
		c-5.323,0-10.244,1.273-10.244,10.628c0,9.358,4.921,10.63,10.244,10.63C129.999,46.23,133.195,45.411,136.036,44.231"/>
	<rect x="142.045" y="20.477" fill="#333333" width="6.086" height="30.298"/>
	<path fill="#333333" d="M181.943,35.647c0,9.899-5.533,15.127-15.977,15.127h-11.663V20.476h11.663
		C176.41,20.476,181.943,25.696,181.943,35.647 M175.853,35.647c0-7.27-2.841-10.221-9.887-10.221h-5.577v20.395h5.577
		C173.012,45.821,175.853,42.868,175.853,35.647"/>
	<polygon fill="#333333" points="218.604,45.571 216.364,50.751 198.487,50.751 198.487,20.454 204.573,20.454 204.573,45.571 	"/>
	<path fill="#333333" d="M244.303,43.483h-14.301l-3.094,7.268h-6.537l13.438-30.297h6.69l13.439,30.297h-6.54L244.303,43.483z
		 M242.173,38.53l-5.021-11.9l-5.07,11.9H242.173z"/>
	<path fill="#333333" d="M282.702,41.847c0,3.498-1.617,8.904-12.369,8.904h-13.387V20.454h12.169c5.777,0,11.712,1.955,11.712,8.54
		c0,2.999-1.876,4.856-4.008,5.861C279.458,35.714,282.702,37.669,282.702,41.847 M263.031,32.807h6.436
		c0.815,0,5.277,0.274,5.277-3.632c0-3.406-3.244-3.997-5.732-3.997h-5.981V32.807z M276.618,41.577c0-3.59-3.957-3.953-6.795-3.953
		h-6.791v8.355h6.994C273.475,45.979,276.618,45.028,276.618,41.577"/>
	<path fill="#333333" d="M308.842,42.755c0,5.043-5.374,8.355-11.661,8.355c-4.819,0-8.417-1.086-11.158-2.585v-5.541
		c2.384,1.585,5.579,2.907,9.739,2.907c3.499,0,6.996-0.683,6.996-3.497c0-6.725-17.189-2.909-17.189-13.491
		c0-6.179,5.73-8.813,12.065-8.813c3.398,0,6.441,0.862,9.081,2.088v5.317c-2.079-1.226-4.867-2.317-8.37-2.317
		c-3.191,0-6.69,0.862-6.69,3.589C291.655,34.31,308.842,30.4,308.842,42.755"/>
	<polygon fill="#39B54A" points="11.721,28.295 21.723,10.972 44.852,10.972 56.413,30.999 46.414,48.325 47.194,49.677 
		50.579,55.541 64.745,30.999 49.017,3.757 17.556,3.757 3.39,28.295 10.159,28.295 	"/>
	<polygon fill="#333333" points="29.118,38.216 40.684,58.243 49.014,58.243 33.285,31.001 1.825,31.001 5.989,38.216 	"/>
</g>
</svg>
